<?xml version="1.0" encoding="UTF-8"?>
<svg id="Layer_1" xmlns="http://www.w3.org/2000/svg" version="1.1" viewBox="0 0 198 202">
  <!-- Generator: Adobe Illustrator 29.8.2, SVG Export Plug-In . SVG Version: 2.1.1 Build 3)  -->
  <defs>
    <style>
      .st0, .st1, .st2 {
        fill-rule: evenodd;
      }

      .st0, .st3 {
        fill: #3e3d3d;
      }

      .st1 {
        fill: #181818;
      }

      .st4 {
        fill: #fefefe;
      }

      .st5, .st2 {
        fill: #fcf9e9;
      }
    </style>
  </defs>
  <g id="_x3C_Group_x3E_">
    <path id="_x3C_Path_x3E_" class="st4" d="M32,18.4c10.5-2,16.4.1,23.4-1.9,7-2,12.3-5.1,15.1-7.5,3-2.6,6.7-6.8,9.5-6.6,5.2.4,14.7,4.1,17.1,5.2,2.3,1.1,23.3,4.8,28.8,11.6,5.5,6.8,57.3,83.2,59.6,85.8,2.3,2.6,3.6,12.3,5.2,16.2,2.5,6.1,7.6,14.5,5.5,17.7-2.4,3.6-7,7.1-9.7,8.3-2.7,1.3-17.9,6-20.5,5.7-7.3-.9-14.4-19.3-18.5-22.6-2.6-2.1-.4,16.8-6.2,18.5-5.8,1.7-13.7,3.4-23.9,6-7.3,1.9-15.5,7.6-29.9,11.5-14.2,3.8-31.2,6.5-34.2,3.9-3-2.7-1.9-15.6-5.7-10.5-3.8,5.1-4,11.4-8.7,20.5-5.5,10.7-4.8,14.3-13,15.1-20.9,2-21.8-1.4-23-9.7-.8-5.3-1.5-46.1-1.6-53.4C1.3,125,.2,95.7,0,88.2c-.6-28.3,15.5-49,20-53.7,6.6-6.9,8-15.4,12-16.2h0Z"/>
    <g id="_x3C_Group_x3E_1" data-name="_x3C_Group_x3E_">
      <g id="_x3C_Group_x3E_2" data-name="_x3C_Group_x3E_">
        <path id="_x3C_Compound_Path_x3E_" class="st1" d="M184.3,136.6c-.5,1.3-1.5,2.1-2.7,2.8-.5.3-1,.5-1.5.8-.5.3-1.1.6-1.7.8-.6.2-1.1.2-1.7.3-.5.1-1,.2-1.5.3-.4.2-.9.4-1.3.5-1,.3-2.1.4-3.2.5-1,0-1.7-.6-1.9-1.5-.5-.5-.9-1.2-1.3-1.7-.6-.7-1.1-1.3-1.7-2-.9-.9-1.6-2-2.1-3.1-.2.4-.2.9.2,1.5-2.3-1.3-3.9-2.4-4.9-3.2-1.6-1.3-3.2-3-4.6-5.2-2.3-3.6-4.8-7.1-7.5-10.5-2-2.5-3.8-4.9-5.6-7.3-6.4-8.4-12.9-16.9-19.8-25.5-2-2.5-3.8-5.1-5.6-7.9-.7-1.1-1.5-2.3-2.3-3.3-.3-.4-.6-.9-.8-1.5-.2-.6-.4-1.1-.8-1.5-.2-.2-.5-.2-.6.1-.1.7,0,1.4.5,2,.6.8,1.4,2.3,2.6,4.5.8,1.5,1.7,3,2.6,4.5,1.8,3,3.4,6,5,9.1,3.6,7.1,7.3,14.5,10,21.5,1,2.6,2,5.7,2.9,9,.3,1,.6,2.9,1,5.7.3,1.9.7,3.8,1.3,5.7-.4.7-.7,1-.8,1.1.5,2,.1,4.4-1.6,6.8-.8,1.2-1.9.9-3.2,1.7-1.4.8-3.1,1-4.6,1.4-5.5,1.3-11,2.6-16.4,4.2-2.7.8-5.3,1.7-7.9,2.7-2.5,1-4.9,2.2-7.3,3.4-2.6,1.2-5.2,2.3-7.9,3.1-2.7.8-5.4,1.1-8.1,1.6-5.6,1-11,2.5-16.3,4.5-1.4.5-2.9-1-2.5-2.4.1-.4.3-.7.4-1.1-.2-.6-.3-1.2-.4-1.8-.3-2.2-.5-4.4-.6-6.5,0-.3-.3-.5-.6-.4l-4.4.9c-.2-.8-.6-1.4-.8-2.2-.8-3.7-2.2-7.7-3-10.8-2.5-9.5-4.8-19.2-8-28.5-.3-.9-.7-.9-1,0,0,0,0,.4,0,.8,0,3.7,0,8.1.1,13.4,0,3.4,0,6.6-.2,9.9,0,1.3,0,2.6,0,4,0,7.6-2,12.3-2.8,19.8-.1,1.3-1.7,6-2.4,8.1-1.2,3.7-1.2,3.7-3.3,7.5-.7,1.3-2.2,1.5-2.5,2.3-.3-.4-.6-.7-1-.7-.2,0-.4,0-.6,0,.2,1.5-.3,2.9-.6,4.3-.3,1.4-.6,2.8-1.1,4.1-.5,1.4-1.2,2.5-2.7,2.9-1.3.3-2.6.5-3.9.6-2.2.2-4.8.5-6.9-.3-1.4-.5-2.5-1.4-2.9-2.9-.3-1.2,0-2.5,0-3.7,0-1.1,0-2.3-.2-3.4-.3-1.2-.7-2.4-.6-3.7,0-.1,0-.2,0-.4-.3,0-.5,0-.7,0-.2-1.4-.2-2.8-.1-4.2.2-2,.2-3.4.2-4.1,0-2.7,0-5.4,0-8,0-3.2,0-5.8-.1-8-.3-6.8-.7-12.8-1.2-17.8-.2-1.8-.1-3.3,0-4.5,0-.4-.1-.8-.2-1.2-.6-4.5,0-9.1,0-13.6,0-4.4,0-3.4-.3-7.7,0,.2-.5-5-.5-4.8-.3-2.1-.5-3.7-.4-4.9.1-3.3.5-7.5,1.2-12.7,1.1-8.8,3.4-17.3,6.9-25.5,1.1-2.5,2.3-5,3.8-7.3,1-1.6,2.7-3.8,4.9-6.5,2.3-2.7,4.5-5.5,6.7-8.2l4.5-7.1c.3,0,3.4.3,3.4,0l3.6.6c.1.5.6.5,1.4.2l-1.4,7c0,.2-.1.4-.2.5-.1.2-.2.4,0,.6,0,.2.2.3.4.3,1.5.1,2.9.1,4.4,0-.9-.3-1.9-.7-2.8-1.2-1.4-.8-1.3-2.6,0-3.5.3-.2.6-.4.9-.7-.2-.3-.2-.7-.2-1.1.1-1,1-1.7,1.9-1.8,1.8-.2,3.5-.4,5.3-.6,0,0,.2,0,.3,0,2.6-.4,5.2-.9,7.8-1.6,2.3-.6,4.5-1.2,6.7-2,1.2-.4,2.4-.7,3.6-1.2l-.2-.4c.2,0,.4-.3.4-.6.2.2.4.4.5.6.4-.2.7-.4,1-.7.8-.7,2-.9,2.8,0,0,0,0,0,.1.1,0,0,.2-.1.3-.2l-.8-1.3c0-.1,0-.3,0-.3h.2c.3-.2.5-.2.7.1l.5.9c.7-.5,1.4-1,2.1-1.5,0,0,.1,0,.2,0l-.7-1c0-.1,0-.3,0-.4h.1c.2-.3.5-.3.7,0,.4.4.8.9,1.2,1.3.5.1,1,.4,1.3.9.2.4.3.8.3,1.2.2.4.5.7.7,1.1.3.5,1,.5,1.3,0,1-1.6,2-3,3-4.6.4-.7.9-1.2,1.6-1.6,0,.3.3.4.8.3.1,0,.5-.1.9.2.2,0,.7.2.9.2,1-.1,2.1.2,3.1.4,6.7,1.4,12.1,2.9,16.3,4.6,1.8.8,4,2.1,6.5,4.2,3,2.4,6.5,6,10.4,10.7,8.7,10.4,16.4,21.6,23.1,33.5,1.4,2.5,3.1,4.9,5,7.4,0,0,0,0,0,0,.1.1,1.3,2,1.7,2.7.4.4,4.1,6.1,4.6,6.7.6.7,1.1,1.3,1.3,1.6.4.6.8,1.2,1.2,1.8,2.9,4.3,7,10.2,12.2,17.8,2.3,3.3,3.7,6.6,4.5,10.7.3,1.5.6,3,.9,4.4-.4.1-.8.3-1.2.6,1.8,1.5,2.8,3.8,3.7,5.9.9,2.2,1.6,5.3.7,7.6h0ZM61.6,150.2c0,0-.2,0-.3,0-.1,0-.2,0-.2.2l1.1,7.4c.3-.3.6-.5,1-.8-.8-2.3-1.3-4.6-1.7-6.9ZM66.4,149.3c-.3,0-.6.1-.9.2h0s0,0,0,0c.3,0,.5-.1.8-.2ZM78,23.3l.6,1.1c.3.5.6.6,1.1.2l1.4-1.2c.4-.4.5-.8.1-1.2l-.6-.8c-.1.2-.3.3-.4.4-.7.5-1.5,1-2.2,1.6h0ZM74.2,26.5c.2.3.3.6.5.9.2.4.6.5,1,.2l2.4-1.5c.3-.2.4-.6.2-1l-.8-1.3c-1,.7-1.9,1.5-2.8,2.4-.1.1-.2.2-.4.3h0ZM68.7,31c.2,0,.4,0,.5,0l4.3-2.1c.3-.1.4-.4.2-.7l-.4-.7c-1.4,1.4-2.7,2.8-4.5,3.6,0,0-.1,0-.2,0h0ZM60,33.3c.1.4.5.5,1,.3,2.1-.7,4.1-1.3,6-2,.1,0,.2,0,.2-.2-2,.7-4,1.1-6,1.6-.4,0-.8.2-1.1.3ZM54,34.6s0,0,0,0c0,.2.2.4.4.4l4.6-.9c.2,0,.3-.2.3-.4v-.2c-1.8.4-3.5.8-5.3,1.1h0ZM49.3,31.7c.3,0,.6.1.9.1.3,0,.6.1.9.3.1-.4.4-.8.8-1,.4-.3.8-.5,1.3-.7,0,0,0,0,0,0-1.1.2-2.2.3-3.4.5,0,.4-.2.7-.4,1h0ZM52,34.6c0,.2-.2.3-.3.5.5,0,1,0,1.5,0,.1,0,.2-.1.2-.2-.5,0-1,0-1.4-.2ZM115.4,134.2c0-.2,0-.5.1-.7-4.8,1.5-9.6,3.3-14.5,4.8-3.6,1.2-7.3,2.4-11,3.7-3.4,1.2-6.5,2.3-9.2,3.2,5.7-1.3,11.3-2.5,16.8-4.6,0,0,.1,0,.2,0,.3-.4.6-.7,1.1-.8,3.3-1.2,6.7-2.3,10.1-3.3,2.1-.7,4.2-1.3,6.3-1.8,0,0,0,0,0,0,0,0,.1-.7,0-.4ZM130.4,137.9s0,0,0,0c0,0,0,0-.1.1-.1.1-.3.2-.4.4.1,0,.3-.1.4-.2,0,0,0,0,.2-.2ZM120.3,132.2c1.4,0,2.8,0,4.3.2.7-.2,1.4-.4,2.1-.6.5-.2.9-.3,1.4-.3h.2c1-.2,2.1-.3,3.2-.3.2-1.5,2.4-2.1,3.4-1.1.6.6,1.1,1.3,1.4,2.2,0-1.1.2-2.8.2-3.5,0-.3-.3-.5-.6-.4-1.4.7-2.6,1.1-3.9,1.3-3.9.6-7.8,1.4-11.7,2.4h0Z"/>
        <path id="_x3C_Compound_Path_x3E_1" data-name="_x3C_Compound_Path_x3E_" class="st3" d="M87.8,15.1c-.7.4-1.2.9-1.6,1.6-1,1.6-2,3-3,4.6-.3.5-1,.5-1.3,0-.9-1.5-2-3-3.5-4.5-.2-.2-.4-.2-.7,0h-.1c-.1.2-.1.4,0,.5l3.7,4.9c.3.5.3.9-.1,1.2l-1.4,1.2c-.4.4-.8.3-1.1-.2l-3.2-5.4c-.2-.3-.4-.4-.7-.2h-.2c-.1.2-.2.3,0,.4l3.8,6c.2.3.1.8-.2,1l-2.4,1.5c-.4.3-.7.2-1-.2-.8-1.3-1.5-2.7-2.2-4.1-.5-1-1.2-1.8-1.9-2.6,0,0,0-.1,0-.2,0-.1.1-.2.2-.3,3.7-2.1,6.9-4.7,9.6-7.8.3-.3.8-.4,1.1-.2,2,1.2,3.4,2.1,5.9,2.2.2,0,.4.2.4.6Z"/>
        <path id="_x3C_Path_x3E_1" data-name="_x3C_Path_x3E_" class="st3" d="M42.3,26.7l-.8,7.8c0,.3-.2.5-.5.4l-10.1-1.8c.9-2.6,2.4-5,4.5-7.1.7-.7,1.1-.5,1.2.4.2,1.6,0,3.4-.4,5.5,0,.4,0,.7.2,1h.1c0,.2.3.2.3,0,1-2.7,1.3-4.9,1-6.5,0-.3.2-.5.4-.4l4,.7Z"/>
        <path id="_x3C_Path_x3E_2" data-name="_x3C_Path_x3E_" class="st3" d="M43.8,26.8c.4,0,1,0,1.8-.1.8,0,1.2.3,1.3,1.2.1,2.2.2,4.4.2,6.4,0,0,0,.1,0,.2h.2c.1.2.3.1.4,0,.4-2.1.5-4.2.3-6.5,0-.8.3-1.2,1.1-1.3l2.8-.3c.9,2.3,1.3,3.9,1.2,4.9,0,1.1,0,2.3.2,3.3,0,.1,0,.2-.2.2-1.6,0-3.2.2-4.8.3-.3,0-.6-.2-1.1-.1-1.6.2-3.2.2-4.7,0-.2,0-.3-.1-.4-.3,0-.2,0-.4,0-.6.1-.2.2-.3.2-.5l1.4-7Z"/>
        <path id="_x3C_Compound_Path_x3E_2" data-name="_x3C_Compound_Path_x3E_" class="st3" d="M70.1,21.3l3.6,6.8c.1.3,0,.6-.2.7l-4.3,2.1c-.4.2-1,0-1.2-.4l-3.1-6.5c-.1,0-.2-.2-.2-.4,0-.2,0-.3.3-.4,1.5-.5,3-1.2,4.4-2.1.2-.1.3-.1.5,0l.3.2Z"/>
        <path id="_x3C_Path_x3E_3" data-name="_x3C_Path_x3E_" class="st3" d="M53.5,26.3l4.1-.8c.4,0,.8.2.9.6l.6,5.5.3,2.2c0,.2-.1.4-.3.4l-4.6.9c-.2,0-.4-.2-.4-.4.2-1,.2-2,0-3-.2-1.7-.4-3.5-.6-5.4Z"/>
        <path id="_x3C_Compound_Path_x3E_3" data-name="_x3C_Compound_Path_x3E_" class="st3" d="M64.3,24.9c1.2,2,2.1,4.2,2.8,6.5,0,.2,0,.3-.2.4-1.9.6-3.9,1.3-6,2-.7.2-1,0-1-.7,0-.2,0-.5,0-1l-.5-6.6c0-.2.1-.4.3-.5l3.3-1.2c.2,0,.3,0,.5,0,.3.3.6.7.7,1.1h0Z"/>
        <path id="_x3C_Compound_Path_x3E_4" data-name="_x3C_Compound_Path_x3E_" class="st0" d="M137.4,132.1l-.9,4.5c-.6-.3-.7-1-.3-2.2.2-.6,0-1.7-.6-3.3-.1-.3-.2-.5-.4-.5-.2-.1-.5-.1-.8.1-.2.1-.3.3-.2.5l1.2,8c-.7,1.1-1.7,1.8-3,2.1.3-3.1,0-6.2-1-9.5,0-.2-.2-.3-.4-.2h-.2c-.3.1-.5.5-.4.8.7,2.7,1.2,5.5,1.4,8.4,0,.1.1.4.3.6l-2.2.8c-.5.2-.8,0-.9-.6-.2-3.1-.8-5.9-1.7-8.6,0-.3-.3-.4-.5-.3h-.2c-.1.1-.2.2-.2.3l2,8.9c0,.4,0,.6-.4.7l-2.3.7c-.4.1-.7,0-.7-.5,0-1.4,0-2.7-.3-4.1-.4-1.8-.8-3.5-1.1-5.4,0-.3-.4-.5-.7-.5h-.2c-.2.1-.4.4-.3.6,1,3.2,1.9,6.5,1.7,9.9,0,.2-.1.3-.3.4l-2.4.5c-.3,0-.6-.2-.6-.5,0-3.1-.4-6.2-1.4-9.4,0-.3-.2-.4-.5-.3h-.2c-.1,0-.2.2-.1.3.6,1.7,1,3.5,1,5.3,0,1.6.3,3.1.6,4.6,0,.2,0,.2-.2.3l-3.3.7c-.2,0-.2,0-.3-.2-.6-2.9-1.4-5.9-2.4-8.9,0-.2-.3-.3-.4-.2-.1,0-.2,0-.3.2-.2.2-.3.5-.2.8,1,2.4,1.8,5,2.5,7.9,0,.4-.1.7-.5.8l-3.6.7c0-.2,0-.4,0-.6,0-.2,0-.4,0-.5l-2.3-7c-.1-.3-.3-.4-.6-.2h-.2c-.1.2-.2.3-.1.4l3,8.1-3.7,1c-.3,0-.5,0-.6-.3l-2.6-8.2c0-.2-.4-.3-.6-.2h-.2c-.1.3-.2.5-.1.6l2.8,8c0,.2,0,.5-.2.5l-3.4,1.3-2.5-7.8c-.1-.3-.4-.5-.8-.5,0,0-.2,0-.2,0-.2,0-.4.3-.3.6.8,2.3,1.7,4.5,2.9,6.8.1.3.4.6.7,1-1,.8-2.2,1.3-3.5,1.5l-3.6-8.3c0,0,0-.1-.2-.1h-.2c-.2,0-.4.2-.3.4,1.2,3.2,2.5,5.9,4,8.1,0,.1-.1.3-.2.4,0,.1-.2.2-.3.3-1.2.6-2.4,1.2-3.6,1.7-.3.1-.5,0-.6-.3-.9-2.8-2.1-5.5-3.4-8.1-.2-.3-.4-.5-.7-.6-.2,0-.3,0-.2.2,1.1,2.9,2.4,5.7,3.7,8.4.2.5,0,.9-.4,1.1l-2.2.8c-.1,0-.3,0-.4,0-.2-.1-.3,0-.4.2,0,.1-.1.2-.2.2l-3.7,1.2c-.2,0-.4,0-.5-.2-1.2-2.7-2.6-5.7-4.3-9.1,0-.2-.2-.3-.4-.4-.3-.2-.4-.1-.3.3,1.1,3.4,2.6,6.4,4.4,9.2.1.2,0,.5-.2.5-1.2.2-2.3.3-3.1.3-.2,0-.4-.1-.5-.3-1.3-2.8-2.5-5.7-3.6-8.8,0-.2-.3-.3-.5-.2h-.2c-.2.2-.3.5-.2.7.5,1,.8,2,1.1,3.2.2.9.6,1.8,1,2.5.6.9,1.1,1.8,1.7,2.6.1.2,0,.5-.2.5l-4.7.7c-.2,0-.5-.1-.5-.4-.5-3.2-1.3-6.2-2.3-9.1,0,0-.1-.1-.2-.1h-.2c0,0,0,0,0,.2l1.9,9.2c0,.4,0,.6-.4.7l-2.2.7c-.5.1-.7,0-.8-.5-.3-2.8-.7-5.5-1.4-8.1,0-.2-.2-.3-.4-.3h-.2c-.1,0-.2.2-.2.3.2,1.1.6,2.1.7,3.3.1,1.7.4,3.2,1,4.8.2.7,0,1.2-.7,1.4l-1.9.6c-.6.2-1,0-1.1-.7l-1.3-8.3c0-.3-.2-.4-.5-.4h-.3c-.2,0-.2.2-.2.3l1.7,9.3c0,.2,0,.3-.1.4-.5.4-1.1.5-1.8.7-.5.1-.8,0-1.1-.4l-1.7-11.2c0-.1,0-.2.2-.2,4.1-.7,7.6-1.5,10.7-2.3,4.1-1.1,10.2-3.1,18-5.8,3.7-1.3,7.4-2.6,11-3.7,5.4-1.7,10.8-3.8,16-5.3,4.9-1.4,9.9-2.5,15-3.3,1.2-.2,2.5-.6,3.9-1.3.3-.1.6,0,.6.4,0,1.4.4,2.5.9,3.3h0ZM85.5,145.1c-.1-.2-.4-.3-.6-.2h0c-.2.1-.3.4-.2.6l4.8,8.7c.1.2.4.3.6.2h0c.2-.1.3-.4.2-.6l-4.8-8.7Z"/>
        <path id="_x3C_Path_x3E_4" data-name="_x3C_Path_x3E_" class="st3" d="M55.6,150.7l4.4-.9c.3,0,.5.2.6.4,0,2.2.3,4.3.6,6.5.2,1.6.7,3.1,1.3,4.6,0,.2,0,.3,0,.5,0,.1-.2.2-.3.3-1.7.5-3.1-1-3.7-2.4-1.3-3.2-2.3-6-2.9-8.4,0-.2,0-.4.1-.7Z"/>
        <path id="_x3C_Path_x3E_5" data-name="_x3C_Path_x3E_" class="st3" d="M181.1,122.4c1.8,2.5,3.3,5.2,4.3,8.1,1,2.8,1.7,5.2-1.1,7.2-3.5,2.6-8,4.5-13.6,5.7-1.3.3-2.3-.1-2.9-1.2-1.4-2.3-2.7-4.5-3.9-6.5-.5-1-.3-1.7.5-2.1.4-.2.9,0,1,.4,1.2,3.1,2.8,5.7,4.8,7.8,0,0,.1,0,.2,0h.3c0,0,0-.1,0-.2-1.8-2.8-3.3-5.7-4.6-8.9,0-.2,0-.4.2-.5l1.8-1.2c.3.4.5.9.8,1.5,1.5,2.8,3.2,5.4,5.1,7.8.1.1.3.2.4,0h.1c0-.1,0-.2,0-.3l-5.5-9.5c.6-.5,1.2-.8,1.9-.8.2,0,.4,0,.5.2,2.2,2.9,4.2,6,6,9.3,0,0,0,0,.1,0h.2c.2,0,.3-.3.2-.4-1.5-3.6-3.2-7-5.2-10-.3-.4-.2-.8.3-1l1-.5c.4-.2.8,0,1.1.3l6.1,8.9c.7,1,.8.9.4-.2-1.2-3.4-3-6.6-5.5-9.6-.2-.2-.2-.5,0-.7,1.4-1.3,3-3.2,4.9-3.9h0Z"/>
        <path id="_x3C_Path_x3E_6" data-name="_x3C_Path_x3E_" class="st3" d="M18.9,173.8l-1.5,12.5c0,.1.1.3.2.2h.3c.3-.1.5-.3.5-.6l1-11.1c0-.2,0-.4-.1-.5,0-.1-.1-.3-.2-.5,1-.2,2-.3,3-.1.2,0,.3.1.4.3.2.8.2,1.5,0,2.2-.2.7-.3,1.4-.3,2.1-.1,3-.1,5.6,0,7.8,0,0,0,.2.2.2h.2s0,0,0,0c.7-3.3.9-7.4.6-12.3,0-.2.2-.4.4-.4l3.3.3c.2,0,.3.1.2.3-1.1,3.5-1.7,7.2-1.7,11.1,0,0,0,.1.1.1h.2s0,0,0,0l2.2-10.8c0-.2.2-.3.4-.2.6.2,1.2.4,1.9.4.4,0,.7.3,1,.7-.4,2.6-1.3,5.7-2.7,9.1-.4,1-1,1.5-1.9,1.5-1,0-1.6,0-1.9.1-1.6.4-3.3.7-5.1.9-.7,0-1.2,0-1.6,0-.2,0-.3,0-.5,0-.8.3-2.2,0-3.1-.3-2.7-.7-4-2.6-4.6-5.3-.7-3.3-.7-6.3,0-9,1-.2,2.1-.1,3.2.1.3,0,.5.4.5.7-.7,3.7-1.4,7.5-.6,11.4,0,.3.3.6.6.8,0,0,.2,0,.2-.2,0,0,0-.2,0-.3-.3-3.4,0-6.8.8-10.1.3-1.3,1.1-2.2,2.5-1.4.2,0,.3.1.5,0,.5,0,.9,0,1.2.4Z"/>
        <path id="_x3C_Path_x3E_7" data-name="_x3C_Path_x3E_" class="st3" d="M110.6,44.2c.2-1.3.4-2.7.5-4.1.3-3.6,1.8-7.4,2.7-11,0-.2.2-.3.4-.3l.9.2c.2,0,.3.2.2.4-1,3.5-1.9,7-2.7,10.6-.3,1.4-.2,3-.5,4.4-.1.7-.2,1.5-.2,2.4,0,1.1-.3,2.2-.3,3.2-.1,2.9-.3,5.8-.4,8.8,0,1.4,0,2.8,0,4.2,0,.4-.1.6-.5.8-.2,0-.3,0-.4-.2-.2-.6-.4-1.3-.5-2-.5-3.4-.6-6.5-.2-9.5.3-2.6.4-5.3.8-7.9h0Z"/>
      </g>
    </g>
    <g id="_x3C_Group_x3E_3" data-name="_x3C_Group_x3E_">
      <path id="_x3C_Compound_Path_x3E_5" data-name="_x3C_Compound_Path_x3E_" class="st2" d="M49,70.4c.3.8.5,1.5.8,2.3,0,0,0,.2,0,.3-.2.6-.3,1.2-.5,1.9,0,.1,0,.2-.2.3-1.6,1.5-3.1,3.1-4.5,4.8-.1.2-.3.1-.4,0-.1-.3-.2-.7-.4-1,0-.2,0-.5.1-.6,0,0,.2-.3.4-.5-.2-.5-1.7-5-1.9-5.6-.2.2-.4.5-.4.5-.1.2-.3.1-.4,0-.1-.3-.2-.7-.4-1,0-.2,0-.5.1-.6,1.4-1.7,2.9-3.3,4.5-4.8,0,0,.1-.1.2,0,.4,0,.8.2,1.2.3,0,0,.1,0,.2.2.2.7.5,1.4.7,2.1,0,0,0,.2,0,.3,0,0-.2.7-.3,1.2.3,0,.8.2.8.2,0,0,.1,0,.2.2ZM44.8,72.2c.4-.4,1.5-1.6,1.7-1.7,0-.2,0-.4.1-.6,0-.2-.3-1-.4-1.2,0,0-.2,0-.3,0-.2.2-1.4,1.4-1.7,1.8.1.4.5,1.3.6,1.7ZM47.4,72.3c-.1,0-.3,0-.4,0-.2.2-1.3,1.3-1.7,1.7.2.4.6,1.6.7,2,.4-.4,1.6-1.6,1.7-1.8,0-.2,0-.3.1-.5,0-.2-.4-1.2-.5-1.4Z"/>
      <path id="_x3C_Compound_Path_x3E_6" data-name="_x3C_Compound_Path_x3E_" class="st2" d="M54.6,61.5c.7,2,1.4,3.9,2,5.9,0,0,0,.2,0,.3-.2.6-.5,1.3-.7,1.9,0,.1,0,.2-.2.2-1.2.8-2.3,1.7-3.4,2.6,0,0-.2,0-.2,0-.5-.1-1-.2-1.4-.3,0,0-.1,0-.2-.2-.7-2-1.4-3.9-2-5.9,0,0,0-.2,0-.3.2-.7.4-1.4.6-2,0-.1,0-.2.2-.3,1.1-.9,2.3-1.8,3.4-2.6,0,0,.2,0,.2,0,.5.1,1,.3,1.5.5,0,0,.1,0,.2.2ZM52.9,63.4c-.1,0-.3,0-.5-.1-.2.1-1.6,1.2-1.8,1.4,0,.2-.1.5-.2.6,0,.3,1.5,4.5,1.6,4.7.1,0,.3,0,.5.1.2-.2,1.6-1.2,1.8-1.4,0-.2.1-.4.2-.6,0-.2-1.5-4.5-1.6-4.7Z"/>
      <g id="_x3C_Group_x3E_4" data-name="_x3C_Group_x3E_">
        <path id="_x3C_Compound_Path_x3E_7" data-name="_x3C_Compound_Path_x3E_" class="st5" d="M62.5,55.3c-.2,0-.3.3-.2.5.1.3.2.7.4,1,0,.2.3.3.4.2,0,0,.3-.1.6-.3,0,.5.4,2.6.6,4.3-1.1-1.7-3.1-4.9-3.1-4.9,0-.1-.3-.2-.4-.1-.6.3-1.2.6-1.7.9-.1,0-.2.3-.2.4,0,0,.5,3.9.7,6-.8-1.4-1.8-3.2-2.1-3.6.3-.2.6-.4.6-.4.2,0,.3-.3.2-.5-.1-.3-.2-.7-.4-1,0-.2-.3-.3-.4-.2-1,.5-1.9,1.1-2.9,1.7-.2.1-.3.3-.2.5.1.3.2.7.4,1,0,.2.2.2.4.1,0,0,.2-.1.4-.2.3.4,3.8,6.2,3.8,6.2,0,.1.2.2.4,0,.6-.3,1.2-.7,1.8-1,.1,0,.2-.3.2-.4,0,0-.5-4.1-.7-6.2,1,1.6,3.1,5,3.1,5,0,.1.2.2.4.1.6-.3,1.2-.5,1.8-.8.2,0,.3-.2.2-.4,0,0-.9-7-1-7.6.2,0,.4-.2.4-.2.2,0,.3-.3.2-.5-.1-.3-.2-.7-.4-1,0-.2-.3-.3-.5-.2-1,.4-1.9.8-2.9,1.2h0Z"/>
      </g>
      <path id="_x3C_Compound_Path_x3E_8" data-name="_x3C_Compound_Path_x3E_" class="st2" d="M74.8,53.1c.7,2,1.4,3.9,2.1,5.9,0,0,0,.2,0,.2-.3.5-.6,1-.9,1.5,0,0-.1.1-.2.1-2,.5-4,1.1-6,1.8-.2,0-.4,0-.5-.2-.1-.3-.2-.7-.4-1,0-.2,0-.4.2-.4,0,0,.3-.1.6-.2-.2-.6-1.7-5-1.9-5.6-.3,0-.6.2-.6.2-.2,0-.4,0-.5-.2-.1-.3-.2-.7-.4-1,0-.2,0-.4.2-.5,2-.7,4-1.3,6-1.8,0,0,.2,0,.3,0,.6.3,1.1.6,1.7.9,0,0,.1.1.2.2h0ZM72.7,54.2c-.1,0-.4-.2-.5-.3-.2,0-1.7.5-2.2.6.2.5,1.7,4.9,1.9,5.5.5-.1,2-.6,2.2-.6,0-.1.2-.3.3-.5,0-.3-1.6-4.5-1.6-4.7Z"/>
      <path id="_x3C_Compound_Path_x3E_9" data-name="_x3C_Compound_Path_x3E_" class="st2" d="M83.3,52c.7,2,1.4,3.9,2.1,5.9,0,0,0,.2,0,.2-.3.4-.6.8-.9,1.3,0,0-.1.1-.2.1-1.4.1-2.9.3-4.3.5,0,0-.2,0-.3,0-.6-.3-1.1-.6-1.7-1,0,0-.2-.1-.2-.2-.7-2-1.4-3.9-2-5.9,0,0,0-.2,0-.3.3-.5.6-.9.9-1.4,0,0,.1-.1.2-.1,1.4-.2,2.8-.4,4.3-.5,0,0,.2,0,.3,0,.6.4,1.2.7,1.7,1.1,0,0,.2.1.2.2ZM81.2,52.8c-.1,0-.4-.2-.5-.3-.2,0-2,.2-2.2.3,0,.1-.2.3-.3.4,0,.3,1.5,4.4,1.6,4.7.2,0,.4.2.5.3.2,0,2-.2,2.2-.3,0-.1.2-.3.3-.4,0-.3-1.5-4.5-1.6-4.7h0Z"/>
      <g id="_x3C_Group_x3E_5" data-name="_x3C_Group_x3E_">
        <path id="_x3C_Compound_Path_x3E_10" data-name="_x3C_Compound_Path_x3E_" class="st5" d="M83.9,50.5c-.2,0-.3.2-.3.3.1.3.2.7.4,1,0,.2.3.3.5.3,0,0,.4,0,.8,0,.2.6,1.7,5,1.9,5.6-.3,0-.8,0-.8,0-.2,0-.3.2-.2.3.1.3.2.7.4,1,0,.2.3.3.5.3,1.3,0,2.6,0,3.8,0,.2,0,.3-.1.2-.3-.1-.3-.2-.7-.4-1,0-.2-.3-.3-.5-.3,0,0-.4,0-.8,0-.2-.5-1.7-5-1.9-5.6.3,0,.7,0,.7,0,.2,0,.3-.1.3-.3-.1-.3-.2-.7-.4-1,0-.2-.3-.3-.5-.3-1.3,0-2.6,0-3.8,0Z"/>
      </g>
      <g id="_x3C_Group_x3E_6" data-name="_x3C_Group_x3E_">
        <path id="_x3C_Compound_Path_x3E_11" data-name="_x3C_Compound_Path_x3E_" class="st5" d="M94.6,51.1c-.2,0-.3,0-.3.3.1.3.2.7.4,1,0,.2.3.4.5.4,0,0,.4,0,.8.1.1.4.7,2.1,1.2,3.4-1.4-1.6-4.9-5.3-4.9-5.3-.1-.1-.2-.2-.4-.2-.9,0-1.7-.2-2.6-.2-.2,0-.3.1-.2.3.1.3.2.7.4,1,0,.2.3.3.5.4,0,0,.4,0,.7,0,.2.6,1.7,5,1.9,5.6-.3,0-.7,0-.7,0-.2,0-.3.1-.3.3.1.3.2.7.4,1,0,.2.3.3.5.3,1.2,0,2.4.2,3.6.3.2,0,.3,0,.3-.3-.1-.3-.2-.7-.4-1,0-.2-.3-.3-.5-.4,0,0-.4,0-.8,0-.1-.4-.7-2.2-1.2-3.4,1.4,1.5,4.9,5.4,4.9,5.4.1.1.2.2.4.2.5,0,1,.2,1.5.3.2,0,.3,0,.3-.3,0,0-2.2-6.3-2.4-6.9.3,0,.6.1.6.1.2,0,.3,0,.2-.2-.1-.3-.2-.7-.4-1,0-.2-.3-.4-.5-.4-1.2-.2-2.3-.5-3.5-.6h0Z"/>
      </g>
    </g>
    <g id="_x3C_Group_x3E_7" data-name="_x3C_Group_x3E_">
      <g id="_x3C_Group_x3E_8" data-name="_x3C_Group_x3E_">
        <path id="_x3C_Compound_Path_x3E_12" data-name="_x3C_Compound_Path_x3E_" class="st5" d="M49.4,80.3c0,0-.2,0-.2.2l-.8,1.5c0,0,0,.2,0,.3l1.8,5.8c0,0,0,.2.2.2l1.5.8c0,0,.2,0,.2,0l3.6-1.1c0,0,.2,0,.2-.2l.8-1.5c0,0,0-.2,0-.3l-.5-1.5c0-.2-.2-.3-.4-.2l-1.4.4c-.2,0-.3.2-.2.4,0,0,.2.7.3.9,0,.1-.2.3-.2.4-.2,0-1.6.5-1.8.6-.1,0-.3-.2-.5-.2,0-.2-1.4-4.3-1.5-4.6,0-.1.2-.3.3-.5.2,0,1.6-.5,1.8-.6.1,0,.3.2.4.2,0,.2.3.9.3.9,0,.2.2.3.4.2l1.4-.4c.2,0,.3-.2.2-.4l-.5-1.4c0,0,0-.1-.2-.2l-1.5-.7c0,0-.2,0-.3,0l-3.6,1.1Z"/>
      </g>
      <path id="_x3C_Compound_Path_x3E_13" data-name="_x3C_Compound_Path_x3E_" class="st2" d="M62.9,77.6l1.8,5.7c0,0,0,.2,0,.3l-.8,1.5c0,0-.1.1-.2.2l-3.8,1.2c0,0-.2,0-.3,0l-1.5-.8c0,0-.1-.1-.2-.2l-1.8-5.7c0,0,0-.2,0-.3l.8-1.5c0,0,.1-.1.2-.2l3.8-1.2c0,0,.2,0,.3,0l1.5.8c0,0,.1.1.2.2ZM61.1,78.8c-.1,0-.3-.2-.5-.3-.2,0-1.7.6-1.9.6,0,.1-.2.3-.3.5,0,.2,1.4,4.3,1.5,4.6.1,0,.3.2.5.3.2,0,1.7-.6,2-.6,0-.1.2-.3.2-.5,0-.2-1.4-4.3-1.5-4.6Z"/>
      <g id="_x3C_Group_x3E_9" data-name="_x3C_Group_x3E_">
        <path id="_x3C_Compound_Path_x3E_14" data-name="_x3C_Compound_Path_x3E_" class="st5" d="M63.8,75.7c-.2,0-.3.2-.2.4l.3,1c0,.2.2.3.4.2,0,0,.3,0,.6-.2.2.5,1.6,4.9,1.7,5.4-.3,0-.6.2-.6.2-.2,0-.3.2-.2.4l.3,1c0,.2.2.3.4.2l5.8-1.9c.2,0,.3-.2.2-.4l-.9-2.9c0-.2-.2-.3-.4-.2l-1.2.4c-.2,0-.3.2-.2.4,0,0,.4,1.2.5,1.6-.4.1-1.4.4-1.8.6-.2-.5-1.6-4.9-1.7-5.4.3-.1.9-.3.9-.3.2,0,.3-.2.2-.4l-.3-1c0-.2-.2-.3-.4-.2l-3.4,1.1Z"/>
      </g>
      <g id="_x3C_Group_x3E_10" data-name="_x3C_Group_x3E_">
        <path id="_x3C_Compound_Path_x3E_15" data-name="_x3C_Compound_Path_x3E_" class="st5" d="M70.9,73.4c-.2,0-.3.2-.2.4l.3,1c0,.2.2.3.4.2,0,0,.3,0,.6-.2.2.5,1.6,4.9,1.7,5.4-.3,0-.6.2-.6.2-.2,0-.3.2-.2.4l.3,1c0,.2.2.3.4.2l5.8-1.9c.2,0,.3-.2.2-.4l-.9-2.9c0-.2-.2-.3-.4-.2l-1.2.4c-.2,0-.3.2-.2.4,0,0,.4,1.2.5,1.6-.4.1-1.4.4-1.8.6-.2-.5-1.6-4.9-1.7-5.4.3,0,.8-.3.8-.3.2,0,.3-.2.2-.4l-.3-1c0-.2-.2-.3-.4-.2l-3.4,1.1Z"/>
      </g>
      <g id="_x3C_Group_x3E_11" data-name="_x3C_Group_x3E_">
        <path id="_x3C_Compound_Path_x3E_16" data-name="_x3C_Compound_Path_x3E_" class="st5" d="M77.9,71.2c-.2,0-.3.2-.2.4l.3,1c0,.2.2.3.4.2,0,0,.3,0,.6-.2.2.5,1.6,4.9,1.7,5.4-.3,0-.6.2-.6.2-.2,0-.3.2-.2.4l.3,1c0,.2.2.3.4.2l6.2-2c.2,0,.3-.2.2-.4l-.7-2.2c0-.2-.2-.3-.4-.2l-1.2.4c-.2,0-.3.2-.2.4,0,0,.1.5.3.8-.4.1-1.7.5-2.1.7-.1-.4-.5-1.5-.6-1.9.5-.2,2.8-.9,2.8-.9.2,0,.3-.2.2-.4l-.3-1.1c0-.2-.2-.3-.4-.2,0,0-2.3.7-2.8.9-.1-.4-.4-1.4-.6-1.8.4-.1,1.7-.5,2.1-.7.1.3.3.8.3.8,0,.2.2.3.4.2l1.2-.4c.2,0,.3-.2.2-.4l-.7-2.2c0-.2-.2-.3-.4-.2l-6.2,2Z"/>
      </g>
      <g id="_x3C_Group_x3E_12" data-name="_x3C_Group_x3E_">
        <path id="_x3C_Compound_Path_x3E_17" data-name="_x3C_Compound_Path_x3E_" class="st5" d="M87.2,68.3c0,0-.2,0-.2.2l-.8,1.5c0,0,0,.2,0,.3l1.8,5.8c0,0,0,.1.2.2l1.5.8c0,0,.2,0,.3,0l3.7-1.2c0,0,.2,0,.2-.2l.8-1.5c0,0,0-.2,0-.3l-1-3.2c0-.2-.2-.3-.4-.2l-3.3,1c-.2,0-.3.2-.2.4l.3,1.1c0,.2.2.3.4.2,0,0,1.1-.4,1.5-.5.1.4.3,1.1.4,1.2,0,.1-.1.3-.2.4-.2,0-1.7.5-1.9.6-.1,0-.3-.2-.5-.3,0-.2-1.4-4.3-1.5-4.6,0-.1.2-.3.2-.5.2,0,1.8-.6,2-.6,0,0,.2.1.3.2,0,.2.2.7.2.7,0,.2.2.3.4.2l1.4-.4c.2,0,.3-.2.2-.4l-.4-1.2c0,0,0-.2-.2-.2l-1.4-.7c0,0-.2,0-.3,0l-3.8,1.2Z"/>
      </g>
      <g id="_x3C_Group_x3E_13" data-name="_x3C_Group_x3E_">
        <path id="_x3C_Compound_Path_x3E_18" data-name="_x3C_Compound_Path_x3E_" class="st5" d="M93.5,66.2c-.2,0-.3.2-.2.4l.3,1c0,.2.2.3.4.2,0,0,.3,0,.6-.2.2.5,1.6,4.9,1.7,5.4-.3,0-.6.2-.6.2-.2,0-.3.2-.2.4l.3,1c0,.2.2.3.4.2l6.2-2c.2,0,.3-.2.2-.4l-.7-2.1c0-.2-.2-.3-.4-.2l-1.2.4c-.2,0-.3.2-.2.4,0,0,.2.5.3.8-.4.1-1.7.5-2.1.7-.1-.4-.5-1.5-.6-1.9.5-.2,2.8-.9,2.8-.9.2,0,.3-.2.2-.4l-.3-1.1c0-.2-.2-.3-.4-.2,0,0-2.3.7-2.8.9-.1-.4-.4-1.4-.6-1.8.4-.1,1.7-.5,2.1-.7.1.3.3.8.3.8,0,.2.2.3.4.2l1.2-.4c.2,0,.3-.2.2-.4l-.7-2.2c0-.2-.2-.3-.4-.2l-6.2,2Z"/>
      </g>
    </g>
    <path id="_x3C_Path_x3E_8" data-name="_x3C_Path_x3E_" class="st3" d="M33.2,84.2c.7,1.2,1.4,2.3,2.2,3.5,2.1,3,3.3,6.8,4.9,10.2,0,.2,0,.4-.2.5l-.8.5c-.2.1-.3,0-.4-.2-1.4-3.3-3-6.6-4.7-9.9-.7-1.2-1.7-2.4-2.5-3.7-.4-.6-.8-1.3-1.4-2-.7-.9-1.2-1.9-1.8-2.7-1.7-2.3-3.5-4.6-5.3-7-.8-1.1-1.7-2.2-2.7-3.1-.3-.3-.3-.6-.1-.9.1-.2.2-.2.4-.1.6.3,1.1.7,1.7,1.2,2.5,2.3,4.6,4.7,6.2,7.2,1.4,2.2,3.1,4.3,4.4,6.6Z"/>
  </g>
</svg>